<svg width="40" height="40" viewBox="0 0 40 40" fill="none" xmlns="http://www.w3.org/2000/svg">
<path d="M17.1133 35.0002C17.4059 35.5069 17.8267 35.9276 18.3334 36.2201C18.8401 36.5127 19.4149 36.6667 20 36.6667C20.5851 36.6667 21.1599 36.5127 21.6666 36.2201C22.1733 35.9276 22.5941 35.5069 22.8867 35.0002M5.43667 25.5435C5.21894 25.7821 5.07526 26.0789 5.0231 26.3977C4.97093 26.7165 5.01254 27.0436 5.14285 27.3392C5.27316 27.6347 5.48656 27.8861 5.7571 28.0626C6.02763 28.2392 6.34363 28.3333 6.66667 28.3335H33.3333C33.6563 28.3336 33.9724 28.2399 34.2431 28.0637C34.5138 27.8875 34.7275 27.6364 34.8581 27.341C34.9888 27.0456 35.0308 26.7186 34.9791 26.3998C34.9273 26.081 34.784 25.7841 34.5667 25.5452C32.35 23.2602 30 20.8318 30 13.3335C30 10.6813 28.9464 8.13779 27.0711 6.26243C25.1957 4.38706 22.6522 3.3335 20 3.3335C17.3478 3.3335 14.8043 4.38706 12.9289 6.26243C11.0536 8.13779 10 10.6813 10 13.3335C10 20.8318 7.64834 23.2602 5.43667 25.5435Z" stroke="#003B54" stroke-width="2" stroke-linecap="round" stroke-linejoin="round"/>
</svg>
