<svg width="56" height="52" viewBox="0 0 56 52" fill="none" xmlns="http://www.w3.org/2000/svg">
<path fill-rule="evenodd" clip-rule="evenodd" d="M27.9329 0.210571C28.228 0.210571 28.4393 0.227455 28.6539 0.271354C28.8216 0.308498 29.0462 0.369281 29.1569 0.406425C29.2675 0.446947 29.4654 0.534743 29.5928 0.598902C29.7202 0.666438 29.9047 0.771119 29.9952 0.831901C30.0891 0.892683 30.2735 1.04802 30.411 1.17633C30.5451 1.30127 30.7497 1.52752 30.8604 1.6761C30.9677 1.82468 31.1253 2.08131 31.2057 2.25015C31.2829 2.41899 31.3902 2.70602 31.4438 2.89174C31.531 3.20241 31.5377 3.2767 31.5377 3.82036C31.5377 4.36403 31.531 4.43831 31.4438 4.74898C31.3902 4.9347 31.2963 5.20147 31.2326 5.33992C31.1655 5.47837 31.0448 5.69786 30.9576 5.82955C30.8704 5.95787 30.686 6.18412 30.5485 6.33269C30.401 6.48803 30.1595 6.69063 29.9617 6.82233C29.7772 6.94389 29.5626 7.07559 29.338 7.18027L29.3413 10.135H32.8556C34.7871 10.135 36.6247 10.1518 36.9365 10.1687C37.2484 10.1856 37.7111 10.2261 37.9593 10.2565C38.2074 10.2835 38.5931 10.3376 38.8144 10.3747C39.0357 10.4119 39.4113 10.4895 39.6527 10.5436C39.8941 10.601 40.2932 10.7056 40.5413 10.7766C40.7895 10.8508 41.1516 10.9623 41.3461 11.0298C41.5406 11.0973 41.9463 11.2561 42.2515 11.3844C42.5566 11.5093 43.0093 11.7153 43.2575 11.8402C43.5056 11.9652 43.8678 12.161 44.0623 12.2725C44.2568 12.3839 44.582 12.5831 44.7832 12.7148C44.9844 12.8431 45.303 13.0593 45.4874 13.1943C45.6719 13.326 46.0038 13.5827 46.2251 13.7616C46.4465 13.944 46.8388 14.2817 47.0937 14.518C47.3519 14.7544 47.7442 15.1427 47.9622 15.3859C48.1835 15.629 48.5322 16.0376 48.7401 16.2976C48.9447 16.5576 49.2196 16.9223 49.3504 17.108C49.4778 17.2938 49.6992 17.6281 49.8366 17.8509C49.9741 18.0738 50.1887 18.4385 50.3095 18.6614C50.4302 18.8842 50.6146 19.2455 50.7152 19.4617C50.8192 19.6812 50.9667 20.0087 51.0405 20.1877C51.1176 20.37 51.2651 20.7685 51.3725 21.0758C51.5636 21.6296 51.5669 21.6329 51.6776 21.6566C51.7413 21.6667 51.9358 21.7038 52.1102 21.7376C52.2845 21.768 52.5796 21.8457 52.7641 21.9098C52.9485 21.9774 53.2134 22.0854 53.3509 22.1563C53.4884 22.2273 53.7097 22.3556 53.8371 22.4434C53.9645 22.5312 54.1993 22.7135 54.3535 22.8452C54.5078 22.9769 54.7291 23.1998 54.8431 23.3382C54.9571 23.4767 55.1147 23.6894 55.1952 23.811C55.2757 23.9325 55.4199 24.1993 55.5171 24.4019C55.6144 24.6045 55.7418 24.9321 55.7954 25.1279C55.8525 25.3238 55.9195 25.6412 55.9497 25.837C55.9765 26.0329 56 26.2862 56 26.401C56 26.5192 55.9832 26.769 55.9631 26.9581C55.943 27.1506 55.8826 27.4748 55.8323 27.6774C55.7787 27.88 55.6781 28.1839 55.6077 28.3528C55.5339 28.5216 55.4132 28.7647 55.3394 28.893C55.2656 29.0214 55.1114 29.251 55.0041 29.3996C54.8934 29.5481 54.6587 29.8048 54.4877 29.9702C54.3133 30.1323 54.0283 30.3653 53.8539 30.4835C53.6795 30.5983 53.4079 30.757 53.2503 30.8313C53.0927 30.9056 52.8311 31.0103 52.6635 31.0643C52.4958 31.1183 52.2175 31.1893 52.0431 31.2196C51.8687 31.25 51.6944 31.2737 51.6575 31.2737C51.6005 31.2703 51.5636 31.348 51.4261 31.7363C51.3356 31.9929 51.1679 32.4285 51.0539 32.7088C50.9399 32.9857 50.7353 33.4348 50.6012 33.705C50.4671 33.9751 50.2659 34.3533 50.1552 34.5492C50.0445 34.745 49.7998 35.1401 49.612 35.4271C49.4242 35.7142 49.1291 36.1329 48.9581 36.3557C48.7871 36.5786 48.5188 36.9129 48.3612 37.0986C48.2002 37.2844 47.8079 37.7031 47.4826 38.0273C47.1607 38.3548 46.7449 38.7465 46.5605 38.9019C46.376 39.0538 46.0508 39.3138 45.8395 39.4759C45.6283 39.6414 45.2728 39.8946 45.0515 40.0432C44.8302 40.1918 44.4781 40.4147 44.2735 40.5362C44.0656 40.6612 43.6431 40.8908 43.3346 41.0461C43.0228 41.2014 42.6204 41.3939 42.4359 41.4716C42.2515 41.5526 41.9262 41.6843 41.715 41.7654C41.5037 41.8464 41.0577 41.995 40.7257 42.0963C40.3938 42.1976 39.8807 42.3327 39.5856 42.3968C39.2905 42.461 38.801 42.5522 38.4958 42.5994C38.1907 42.6467 37.7849 42.7007 37.5904 42.7244C37.3959 42.7446 36.5811 42.7683 34.321 42.7919L29.794 47.0332C27.3025 49.3665 25.2067 51.3183 25.1329 51.3757C25.0592 51.4297 24.9083 51.5175 24.7976 51.5716C24.6869 51.6256 24.4455 51.6999 24.2611 51.737C23.9358 51.8046 23.9157 51.8046 23.624 51.7505C23.4194 51.71 23.2316 51.6459 23.0371 51.5479C22.8695 51.4635 22.675 51.3318 22.5643 51.2238C22.4637 51.1258 22.3229 50.9604 22.2558 50.8591C22.1887 50.7578 22.0915 50.5585 21.9473 50.1668L21.9305 42.7885H20.6462C19.942 42.7885 19.1238 42.7717 18.8287 42.7548C18.5337 42.7345 18.1178 42.6974 17.9066 42.667C17.6953 42.64 17.3399 42.5859 17.1186 42.5488C16.8972 42.5116 16.5116 42.4374 16.2635 42.3799C16.0153 42.3259 15.5392 42.1976 15.2072 42.0963C14.8752 41.995 14.4292 41.8464 14.218 41.7654C14.0067 41.6843 13.6647 41.5459 13.4635 41.4547C13.2623 41.3669 12.8532 41.1711 12.5581 41.0225C12.263 40.8739 11.8338 40.6409 11.6024 40.4991C11.371 40.3606 11.0491 40.1546 10.8814 40.0432C10.7138 39.9318 10.3751 39.6853 10.1269 39.4962C9.8788 39.3071 9.49988 39.0032 9.28862 38.8174C9.07736 38.6351 8.64479 38.2265 8.32958 37.9091C8.01772 37.595 7.61533 37.1594 7.44096 36.9467C7.26659 36.734 7.00838 36.4064 6.86754 36.2207C6.73006 36.035 6.47186 35.6635 6.29748 35.3934C6.11976 35.1232 5.88168 34.7349 5.76431 34.5323C5.6503 34.3297 5.42227 33.8873 5.26132 33.553C5.10036 33.2187 4.88239 32.7257 4.77844 32.4556C4.67114 32.1854 4.53701 31.814 4.36599 31.2906L4.03737 31.2332C3.85293 31.2028 3.55449 31.1285 3.37006 31.0677C3.18563 31.0103 2.89725 30.8955 2.73293 30.8144C2.56862 30.7368 2.31713 30.5949 2.17964 30.5038C2.04216 30.4092 1.81078 30.2336 1.66994 30.1121C1.52575 29.9905 1.30778 29.771 1.18707 29.6258C1.06635 29.484 0.905389 29.2746 0.83497 29.1632C0.761198 29.0517 0.610299 28.7782 0.502994 28.5554C0.392335 28.3325 0.26491 28.0151 0.217964 27.8462C0.171018 27.6774 0.100599 27.3532 0.0670659 27.1202C0.0301796 26.8872 0 26.5901 0 26.4618C0 26.3334 0.0301796 26.0295 0.0670659 25.7864C0.107305 25.5331 0.191138 25.1853 0.26491 24.9591C0.335329 24.7463 0.449341 24.4559 0.51976 24.3175C0.586826 24.179 0.724311 23.9427 0.82491 23.7941C0.922156 23.6455 1.09653 23.4159 1.21054 23.2876C1.3212 23.1592 1.51569 22.9634 1.63641 22.8553C1.76048 22.7473 2.00527 22.5616 2.17964 22.4434C2.35401 22.3252 2.61222 22.1766 2.7497 22.1124C2.88719 22.0483 3.12862 21.9504 3.28623 21.8929C3.44383 21.8389 3.72216 21.768 3.90659 21.7342C4.09102 21.7039 4.26874 21.6667 4.30228 21.6532C4.34922 21.6397 4.41964 21.4742 4.56048 21.0758C4.66443 20.7685 4.82204 20.3498 4.90922 20.1471C4.99641 19.9445 5.18084 19.5461 5.31497 19.2692C5.45245 18.9889 5.68719 18.5499 5.83808 18.2899C5.98898 18.0299 6.2606 17.5977 6.44168 17.3275C6.62275 17.0574 6.94467 16.6184 7.15928 16.3483C7.37054 16.0781 7.76287 15.6222 8.02443 15.3352C8.28934 15.0482 8.7085 14.6295 8.95665 14.4066C9.20479 14.1837 9.55689 13.8764 9.74132 13.7279C9.92575 13.5793 10.2343 13.3395 10.4287 13.2011C10.6232 13.0593 10.9485 12.8398 11.1497 12.7115C11.3509 12.5798 11.6695 12.3873 11.8539 12.2792C12.0383 12.1745 12.3971 11.9821 12.652 11.8537C12.9035 11.7254 13.326 11.5296 13.5909 11.4215C13.8525 11.3101 14.2414 11.1581 14.4527 11.0805C14.664 11.0028 15.0429 10.8812 15.291 10.8069C15.5392 10.7327 15.9617 10.6212 16.2299 10.5571C16.4982 10.4963 16.8972 10.4119 17.1186 10.3747C17.3399 10.3376 17.7255 10.2835 17.9737 10.2531C18.2218 10.2261 18.6913 10.1856 19.0132 10.1687C19.3351 10.1518 21.1727 10.135 26.5916 10.135V7.16339L26.3837 7.06546C26.2663 7.00805 26.0685 6.88987 25.9377 6.79869C25.8069 6.70752 25.6057 6.54206 25.485 6.43062C25.3643 6.31919 25.1832 6.10645 25.0759 5.96125C24.972 5.81267 24.8278 5.57292 24.754 5.42434C24.6802 5.27576 24.5796 5.02588 24.536 4.86717C24.4891 4.70846 24.4321 4.45182 24.412 4.29311C24.3851 4.11752 24.3751 3.86088 24.3885 3.63464C24.3986 3.40502 24.4422 3.13487 24.4925 2.92551C24.5461 2.72628 24.6534 2.43588 24.7607 2.21639C24.868 2.00027 25.0323 1.73013 25.1598 1.5748C25.2771 1.42622 25.4649 1.22699 25.5722 1.13244C25.6795 1.03789 25.8472 0.90619 25.9377 0.842031C26.0316 0.774496 26.2093 0.666438 26.3401 0.602279C26.4709 0.53812 26.6654 0.450323 26.776 0.409802C26.8867 0.372657 27.098 0.311875 27.2455 0.278107C27.4199 0.237586 27.6613 0.213948 27.9329 0.210571V0.210571ZM17.7725 14.3931C17.5411 14.4302 17.1286 14.5214 16.8503 14.5923C16.5753 14.6632 16.1126 14.8051 15.8275 14.9064C15.5425 15.011 15.1334 15.1731 14.9222 15.2677C14.7109 15.3622 14.3789 15.5243 14.1844 15.629C13.9899 15.7337 13.658 15.9262 13.4467 16.0579C13.2354 16.1895 12.88 16.4327 12.6587 16.5981C12.4374 16.7636 12.1289 17.0067 11.9713 17.1384C11.817 17.2701 11.5521 17.5133 11.3878 17.6821C11.2235 17.8509 10.9451 18.1447 10.7708 18.3406C10.5931 18.5364 10.3449 18.8302 10.2175 18.999C10.0901 19.1679 9.88216 19.4549 9.75808 19.6406C9.63401 19.8264 9.45629 20.1134 9.35569 20.2822C9.25844 20.4511 9.07066 20.8056 8.93653 21.0758C8.80239 21.3459 8.62132 21.7477 8.53413 21.9706C8.44695 22.1935 8.32287 22.5345 8.25916 22.7304C8.19545 22.9262 8.10156 23.2606 8.0479 23.4733C7.99425 23.686 7.92048 24.0203 7.88359 24.2162C7.84671 24.412 7.79305 24.7598 7.76287 24.9928C7.73269 25.2258 7.69916 25.7121 7.6891 26.0734C7.67569 26.4719 7.68575 26.9514 7.70922 27.2891C7.73269 27.5964 7.77964 28.0353 7.81317 28.2683C7.84671 28.5013 7.91377 28.8728 7.96407 29.0956C8.01437 29.3185 8.10826 29.6832 8.17198 29.9061C8.23569 30.1289 8.36311 30.5173 8.45365 30.7672C8.54754 31.017 8.76551 31.5101 8.93653 31.8646C9.1109 32.2192 9.38251 32.7122 9.54012 32.9621C9.70108 33.212 9.95928 33.5935 10.1202 33.8063C10.2778 34.019 10.5461 34.3533 10.7138 34.5458C10.8781 34.7416 11.2268 35.0962 11.485 35.3393C11.7432 35.5791 12.1121 35.9033 12.3066 36.0586C12.5011 36.2139 12.8331 36.4604 13.0443 36.6056C13.2556 36.7508 13.5641 36.9501 13.7317 37.048C13.8994 37.1493 14.2884 37.3553 14.6036 37.5072C14.9188 37.6592 15.3782 37.8584 15.6263 37.953C15.8745 38.0441 16.2668 38.1758 16.4982 38.2434C16.7296 38.3109 17.1286 38.4088 17.3868 38.4629C17.645 38.5169 18.0441 38.5878 18.2754 38.6182C18.5068 38.6486 18.9595 38.6857 19.2814 38.7026C19.6034 38.7195 20.8508 38.7364 22.0479 38.7364C23.9123 38.7364 24.2577 38.7465 24.4287 38.7904C24.5394 38.8208 24.7205 38.8883 24.8311 38.939C24.9418 38.993 25.1095 39.1011 25.2067 39.1821C25.3006 39.2632 25.4381 39.4016 25.5119 39.4962C25.5856 39.5873 25.6862 39.7494 25.7365 39.8507C25.7868 39.952 25.8572 40.1513 25.8908 40.2897C25.9511 40.5261 25.9545 40.6983 25.9545 42.7818C25.9545 44.0109 25.9645 45.024 25.9813 45.0307C25.9947 45.0375 27.44 43.7003 29.1904 42.0558C32.0508 39.3746 32.3995 39.0572 32.6108 38.9525C32.7382 38.8917 32.936 38.8141 33.0467 38.787C33.211 38.7465 33.5095 38.7364 34.6563 38.7364C35.4309 38.7364 36.3296 38.7195 36.6515 38.7026C36.9734 38.6857 37.4194 38.6486 37.6407 38.6182C37.862 38.5912 38.2611 38.5203 38.5293 38.4662C38.7976 38.4122 39.2201 38.3075 39.4683 38.2332C39.7164 38.159 40.1087 38.0273 40.3401 37.9428C40.5715 37.8584 41.0778 37.6288 41.4635 37.4363C41.8491 37.2438 42.3253 36.9838 42.5198 36.8589C42.7142 36.734 43.0731 36.4807 43.3178 36.2983C43.5593 36.116 43.9382 35.8087 44.1528 35.6196C44.3708 35.4271 44.6893 35.1165 44.8637 34.9341C45.0381 34.7518 45.303 34.4479 45.4539 34.2621C45.6081 34.0764 45.8563 33.7489 46.0072 33.5361C46.1581 33.3234 46.4062 32.9418 46.5538 32.6919C46.7013 32.442 46.9327 32.0098 47.0668 31.7295C47.1976 31.4526 47.382 31.017 47.4759 30.7672C47.5698 30.5173 47.7073 30.1053 47.7777 29.8554C47.8515 29.6055 47.9487 29.2105 47.9957 28.9775C48.0426 28.7445 48.1063 28.3967 48.1332 28.2008C48.1634 28.0049 48.2036 27.6335 48.2237 27.3735C48.2472 27.0865 48.2539 26.6272 48.2438 26.2085C48.2338 25.8269 48.2002 25.3204 48.1701 25.0773C48.1432 24.8341 48.0862 24.4627 48.0493 24.25C48.0125 24.0372 47.9286 23.6658 47.8683 23.4226C47.8045 23.1795 47.6872 22.781 47.6034 22.5379C47.5162 22.2914 47.3887 21.947 47.3183 21.7781C47.2479 21.6059 47.1272 21.3358 47.0534 21.1771C46.9796 21.0184 46.8187 20.7077 46.6946 20.4848C46.5705 20.262 46.3626 19.9209 46.2352 19.7251C46.1044 19.5292 45.8932 19.2287 45.759 19.0531C45.6283 18.8775 45.3935 18.5871 45.2393 18.4115C45.0817 18.2325 44.8268 17.959 44.6692 17.8003C44.5116 17.6416 44.2467 17.3917 44.079 17.2465C43.9114 17.1013 43.5828 16.8345 43.3413 16.6522C43.0999 16.4698 42.7243 16.2098 42.503 16.0714C42.2817 15.9295 41.9262 15.7236 41.715 15.6121C41.5037 15.5007 41.1416 15.3251 40.9102 15.2238C40.6788 15.1225 40.263 14.9604 39.988 14.8658C39.7097 14.7679 39.3107 14.6464 39.0994 14.5923C38.8881 14.5383 38.5461 14.464 38.3449 14.4235C38.1437 14.3863 37.7178 14.3222 37.406 14.2884C36.8527 14.2243 36.561 14.2209 27.9162 14.2243C20.5859 14.2276 18.926 14.2378 18.594 14.2749C18.3727 14.3019 18.0038 14.3526 17.7725 14.3931V14.3931ZM21.4611 20.7178C21.7327 20.7246 21.9104 20.7516 22.0647 20.7989C22.1854 20.8394 22.3966 20.9441 22.5341 21.0352C22.6716 21.123 22.8728 21.2953 22.9801 21.4168C23.0941 21.5418 23.2316 21.7477 23.3087 21.9031C23.3825 22.0517 23.463 22.288 23.4932 22.4265C23.5368 22.646 23.5435 23.1457 23.5334 26.2085C23.52 29.6562 23.52 29.7406 23.4529 29.9398C23.416 30.0513 23.3322 30.2404 23.2685 30.3619C23.1981 30.497 23.0572 30.6794 22.903 30.8347C22.7219 31.017 22.5744 31.1285 22.3832 31.2264C22.2357 31.3041 21.9943 31.3919 21.8467 31.4256C21.6489 31.4695 21.498 31.4797 21.2766 31.4695C21.0754 31.456 20.891 31.4189 20.7234 31.3615C20.5859 31.3142 20.3746 31.2095 20.2572 31.1285C20.1399 31.0508 19.9521 30.8887 19.8381 30.7672C19.7241 30.6456 19.5866 30.4565 19.5262 30.3451C19.4692 30.2336 19.3887 30.0276 19.3519 29.8892C19.2814 29.6393 19.2814 29.5752 19.2814 26.0971C19.2814 23.6894 19.2915 22.5041 19.3183 22.3826C19.3384 22.288 19.4189 22.0719 19.4994 21.9031C19.6 21.6971 19.7107 21.5316 19.8414 21.3932C19.9487 21.2784 20.1131 21.1365 20.2036 21.0724C20.2941 21.0116 20.4551 20.9238 20.5557 20.8765C20.6563 20.8293 20.8172 20.7719 20.9078 20.7482C21.0117 20.7212 21.2196 20.7111 21.4611 20.7178ZM34.5222 20.7077C34.6898 20.7077 34.9212 20.728 35.0419 20.7583C35.1626 20.7854 35.3806 20.8732 35.5281 20.9508C35.7092 21.0454 35.8735 21.1669 36.0345 21.329C36.1619 21.4573 36.3229 21.6633 36.3899 21.7849C36.457 21.9065 36.5475 22.1124 36.6683 22.4771L36.6783 25.8539C36.685 28.0421 36.6783 29.3388 36.6548 29.5346C36.6347 29.7035 36.5878 29.9297 36.5509 30.0411C36.5107 30.1526 36.4235 30.3349 36.3564 30.4464C36.2893 30.5578 36.1418 30.7401 36.0278 30.8516C35.9171 30.963 35.726 31.1116 35.6086 31.1825C35.4913 31.2534 35.2867 31.3446 35.1593 31.3851C34.9748 31.4425 34.8441 31.4594 34.5389 31.4594C34.2338 31.4594 34.103 31.4425 33.9186 31.3851C33.7911 31.3446 33.5866 31.2534 33.4659 31.1825C33.3485 31.1116 33.1574 30.963 33.0467 30.8516C32.936 30.7401 32.7885 30.5578 32.7214 30.4464C32.6544 30.3349 32.5672 30.1458 32.5269 30.0243C32.4867 29.9027 32.4398 29.6832 32.423 29.5346C32.4029 29.3725 32.3928 27.9171 32.3995 25.8877C32.4096 22.8081 32.4163 22.494 32.4699 22.3083C32.5001 22.1969 32.584 21.9909 32.6544 21.8524C32.7416 21.6735 32.8522 21.5249 33.0299 21.3459C33.2077 21.1636 33.3586 21.0488 33.5497 20.9508C33.6972 20.8732 33.9085 20.7854 34.0192 20.7583C34.1298 20.7313 34.3545 20.7077 34.5222 20.7077V20.7077Z" fill="url(#paint0_linear_1_2736)"/>
<defs>
<linearGradient id="paint0_linear_1_2736" x1="56" y1="51.7895" x2="4.59498" y2="-4.02165" gradientUnits="userSpaceOnUse">
<stop stop-color="#F83600"/>
<stop offset="1" stop-color="#F9D423"/>
</linearGradient>
</defs>
</svg>
