<svg width="40" height="40" viewBox="0 0 40 40" fill="none" xmlns="http://www.w3.org/2000/svg">
<path d="M31.6666 16.6668V20.0002C31.6666 23.0944 30.4374 26.0618 28.2495 28.2497C26.0616 30.4377 23.0941 31.6668 19.9999 31.6668M19.9999 31.6668C16.9057 31.6668 13.9383 30.4377 11.7503 28.2497C9.56242 26.0618 8.33325 23.0944 8.33325 20.0002V16.6668M19.9999 31.6668V36.6668M19.9999 3.3335C18.6738 3.3335 17.4021 3.86028 16.4644 4.79796C15.5267 5.73564 14.9999 7.00741 14.9999 8.3335V20.0002C14.9999 21.3262 15.5267 22.598 16.4644 23.5357C17.4021 24.4734 18.6738 25.0002 19.9999 25.0002C21.326 25.0002 22.5978 24.4734 23.5355 23.5357C24.4731 22.598 24.9999 21.3262 24.9999 20.0002V8.3335C24.9999 7.00741 24.4731 5.73564 23.5355 4.79796C22.5978 3.86028 21.326 3.3335 19.9999 3.3335Z" stroke="#003B54" stroke-width="2" stroke-linecap="round" stroke-linejoin="round"/>
</svg>
