<svg width="183" height="35" viewBox="0 0 183 35" fill="none" xmlns="http://www.w3.org/2000/svg">
<path fill-rule="evenodd" clip-rule="evenodd" d="M18.9545 0C19.1547 0 19.2981 0.011457 19.4437 0.0412451C19.5575 0.0664504 19.7099 0.107696 19.785 0.132901C19.8601 0.160398 19.9944 0.219974 20.0808 0.26351C20.1673 0.309338 20.2925 0.380371 20.3539 0.421617C20.4176 0.462862 20.5428 0.568266 20.636 0.655339C20.7271 0.74012 20.8659 0.893644 20.941 0.994465C21.0138 1.09529 21.1207 1.26943 21.1753 1.384C21.2277 1.49857 21.3005 1.69334 21.3369 1.81937C21.396 2.03018 21.4006 2.08059 21.4006 2.4495C21.4006 2.81842 21.396 2.86883 21.3369 3.07963C21.3005 3.20566 21.2368 3.38668 21.1935 3.48063C21.148 3.57458 21.0661 3.72352 21.0069 3.81288C20.9478 3.89995 20.8226 4.05348 20.7293 4.1543C20.6292 4.2597 20.4654 4.39719 20.3311 4.48655C20.206 4.56904 20.0604 4.6584 19.9079 4.72944L19.9102 6.73441H22.2948C23.6055 6.73441 24.8525 6.74586 25.0641 6.75732C25.2757 6.76878 25.5897 6.79628 25.7581 6.8169C25.9265 6.83523 26.1881 6.87189 26.3383 6.8971C26.4885 6.9223 26.7434 6.975 26.9072 7.01167C27.071 7.05062 27.3418 7.12165 27.5102 7.16977C27.6786 7.22018 27.9243 7.2958 28.0563 7.34163C28.1883 7.38746 28.4636 7.49515 28.6707 7.58222C28.8777 7.66701 29.1849 7.80678 29.3533 7.89156C29.5217 7.97634 29.7674 8.10925 29.8994 8.18486C30.0314 8.26048 30.2521 8.39567 30.3886 8.48503C30.5251 8.57211 30.7413 8.71876 30.8665 8.81041C30.9916 8.89978 31.2169 9.07392 31.3671 9.19537C31.5172 9.3191 31.7835 9.54824 31.9564 9.70864C32.1316 9.86904 32.3978 10.1325 32.5457 10.2975C32.6959 10.4625 32.9326 10.7398 33.0737 10.9162C33.2125 11.0926 33.399 11.3401 33.4878 11.4661C33.5742 11.5922 33.7244 11.819 33.8177 11.9702C33.911 12.1215 34.0566 12.3689 34.1386 12.5202C34.2205 12.6714 34.3456 12.9166 34.4139 13.0632C34.4844 13.2122 34.5845 13.4344 34.6346 13.5559C34.6869 13.6796 34.7871 13.95 34.8599 14.1585C34.9896 14.5343 34.9919 14.5366 35.0669 14.5526C35.1102 14.5595 35.2422 14.5847 35.3605 14.6076C35.4788 14.6283 35.679 14.681 35.8042 14.7245C35.9293 14.7703 36.1091 14.8437 36.2024 14.8918C36.2957 14.9399 36.4459 15.027 36.5323 15.0865C36.6188 15.1461 36.7781 15.2699 36.8828 15.3592C36.9874 15.4486 37.1376 15.5998 37.215 15.6938C37.2923 15.7877 37.3993 15.9321 37.4539 16.0146C37.5085 16.097 37.6063 16.2781 37.6723 16.4156C37.7383 16.553 37.8248 16.7753 37.8612 16.9082C37.8999 17.0411 37.9454 17.2565 37.9659 17.3894C37.9841 17.5223 38 17.6941 38 17.7721C38 17.8523 37.9886 18.0218 37.975 18.1501C37.9613 18.2807 37.9204 18.5007 37.8862 18.6382C37.8498 18.7757 37.7816 18.9819 37.7338 19.0965C37.6837 19.2111 37.6018 19.376 37.5517 19.4631C37.5017 19.5502 37.397 19.706 37.3242 19.8068C37.2491 19.9076 37.0898 20.0818 36.9738 20.1941C36.8554 20.304 36.662 20.4622 36.5437 20.5424C36.4254 20.6203 36.2411 20.728 36.1341 20.7784C36.0272 20.8288 35.8497 20.8998 35.7359 20.9365C35.6222 20.9731 35.4333 21.0213 35.315 21.0419C35.1966 21.0625 35.0783 21.0785 35.0533 21.0785C35.0146 21.0762 34.9896 21.1289 34.8963 21.3925C34.8349 21.5666 34.7211 21.8622 34.6437 22.0524C34.5663 22.2403 34.4275 22.545 34.3365 22.7283C34.2455 22.9117 34.109 23.1683 34.0339 23.3012C33.9588 23.4341 33.7927 23.7022 33.6653 23.897C33.5378 24.0917 33.3376 24.3759 33.2216 24.5271C33.1055 24.6783 32.9235 24.9052 32.8165 25.0312C32.7073 25.1572 32.4411 25.4414 32.2204 25.6613C32.0019 25.8836 31.7198 26.1494 31.5946 26.2548C31.4695 26.3579 31.2487 26.5343 31.1054 26.6443C30.962 26.7566 30.7208 26.9285 30.5707 27.0293C30.4205 27.1301 30.1816 27.2813 30.0428 27.3638C29.9017 27.4486 29.615 27.6044 29.4056 27.7098C29.194 27.8152 28.921 27.9458 28.7958 27.9985C28.6707 28.0535 28.4499 28.1429 28.3066 28.1979C28.1632 28.2529 27.8606 28.3537 27.6353 28.4225C27.4101 28.4912 27.0619 28.5829 26.8617 28.6264C26.6614 28.6699 26.3292 28.7318 26.1222 28.7639C25.9151 28.796 25.6398 28.8326 25.5078 28.8487C25.3758 28.8624 24.8229 28.8784 23.2892 28.8945L20.2174 31.7725C18.5267 33.3558 17.1046 34.6803 17.0545 34.7192C17.0044 34.7559 16.902 34.8154 16.8269 34.8521C16.7519 34.8888 16.588 34.9392 16.4629 34.9644C16.2422 35.0102 16.2285 35.0102 16.0305 34.9736C15.8917 34.9461 15.7643 34.9025 15.6323 34.8361C15.5186 34.7788 15.3866 34.6894 15.3115 34.6161C15.2432 34.5496 15.1477 34.4374 15.1022 34.3686C15.0566 34.2999 14.9907 34.1647 14.8928 33.8989L14.8814 28.8922H14.0099C13.5321 28.8922 12.9769 28.8807 12.7766 28.8693C12.5764 28.8555 12.2943 28.8303 12.1509 28.8097C12.0075 28.7914 11.7663 28.7547 11.6162 28.7295C11.466 28.7043 11.2043 28.6539 11.0359 28.6149C10.8675 28.5783 10.5444 28.4912 10.3192 28.4225C10.0939 28.3537 9.79126 28.2529 9.6479 28.1979C9.50455 28.1429 9.27246 28.049 9.13593 27.9871C8.9994 27.9275 8.7218 27.7946 8.52156 27.6938C8.32132 27.593 8.03006 27.4349 7.87305 27.3386C7.71605 27.2447 7.4976 27.1049 7.38383 27.0293C7.27006 26.9537 7.04024 26.7864 6.87186 26.6581C6.70347 26.5298 6.44635 26.3235 6.30299 26.1975C6.15964 26.0738 5.86611 25.7965 5.65222 25.5811C5.4406 25.368 5.16754 25.0724 5.04922 24.9281C4.9309 24.7837 4.75569 24.5615 4.66012 24.4354C4.56683 24.3094 4.39162 24.0574 4.27329 23.874C4.15269 23.6907 3.99114 23.4272 3.9115 23.2897C3.83413 23.1523 3.6794 22.8521 3.57018 22.6252C3.46096 22.3984 3.31305 22.0638 3.24251 21.8805C3.1697 21.6972 3.07868 21.4452 2.96263 21.09L2.73964 21.051C2.61449 21.0304 2.41198 20.98 2.28683 20.9388C2.16168 20.8998 1.96599 20.8219 1.85449 20.7669C1.74299 20.7142 1.57234 20.618 1.47904 20.5561C1.38575 20.4919 1.22874 20.3728 1.13317 20.2903C1.03533 20.2078 0.887425 20.0589 0.805509 19.9603C0.723593 19.8641 0.614371 19.722 0.566587 19.6464C0.516527 19.5708 0.414132 19.3852 0.341317 19.234C0.266228 19.0827 0.17976 18.8673 0.147904 18.7528C0.116048 18.6382 0.0682635 18.4182 0.045509 18.2601C0.020479 18.102 0 17.9004 0 17.8133C0 17.7262 0.020479 17.52 0.045509 17.355C0.0728144 17.1832 0.129701 16.9472 0.17976 16.7936C0.227545 16.6493 0.30491 16.4522 0.352695 16.3583C0.398204 16.2643 0.491497 16.1039 0.55976 16.0031C0.625749 15.9023 0.744072 15.7465 0.821437 15.6594C0.896527 15.5723 1.0285 15.4394 1.11042 15.3661C1.19461 15.2928 1.36072 15.1667 1.47904 15.0865C1.59737 15.0063 1.77257 14.9055 1.86587 14.862C1.95916 14.8184 2.12299 14.752 2.22994 14.713C2.33689 14.6764 2.52575 14.6283 2.6509 14.6053C2.77605 14.5847 2.89665 14.5595 2.9194 14.5504C2.95126 14.5412 2.99904 14.4289 3.09461 14.1585C3.16515 13.95 3.2721 13.6659 3.33126 13.5284C3.39042 13.3909 3.51557 13.1205 3.60659 12.9326C3.69988 12.7424 3.85916 12.4446 3.96156 12.2681C4.06395 12.0917 4.24826 11.7984 4.37114 11.6151C4.49401 11.4318 4.71245 11.1339 4.85808 10.9506C5.00144 10.7673 5.26766 10.4579 5.44515 10.2632C5.62491 10.0684 5.90934 9.78425 6.07772 9.63302C6.24611 9.48179 6.48503 9.27327 6.61018 9.17245C6.73533 9.07163 6.94467 8.90894 7.07665 8.81499C7.20862 8.71876 7.42934 8.56982 7.56587 8.48274C7.70239 8.39338 7.91856 8.26277 8.04371 8.18944C8.16886 8.11841 8.41233 7.9878 8.58527 7.90073C8.75593 7.81365 9.04263 7.68075 9.22239 7.60743C9.39988 7.53181 9.66383 7.4287 9.80719 7.376C9.95054 7.3233 10.2077 7.24081 10.376 7.1904C10.5444 7.13998 10.8311 7.06437 11.0132 7.02083C11.1952 6.97959 11.466 6.9223 11.6162 6.8971C11.7663 6.87189 12.028 6.83523 12.1964 6.81461C12.3648 6.79628 12.6834 6.76878 12.9018 6.75732C13.1202 6.74586 14.3672 6.73441 18.0443 6.73441V4.71798L17.9032 4.65153C17.8236 4.61258 17.6893 4.53238 17.6006 4.47051C17.5119 4.40864 17.3753 4.29636 17.2934 4.22075C17.2115 4.14513 17.0886 4.00077 17.0158 3.90224C16.9453 3.80142 16.8474 3.63873 16.7974 3.53791C16.7473 3.43709 16.679 3.26753 16.6495 3.15983C16.6176 3.05214 16.5789 2.87799 16.5653 2.7703C16.5471 2.65114 16.5402 2.477 16.5493 2.32347C16.5562 2.16766 16.5857 1.98435 16.6199 1.84228C16.6563 1.70709 16.7291 1.51003 16.8019 1.36109C16.8747 1.21444 16.9862 1.03113 17.0727 0.925723C17.1523 0.824902 17.2798 0.68971 17.3526 0.625551C17.4254 0.561392 17.5392 0.472027 17.6006 0.428491C17.6643 0.382663 17.7849 0.309338 17.8737 0.265802C17.9624 0.222265 18.0944 0.162689 18.1695 0.135192C18.2446 0.109987 18.3879 0.0687418 18.488 0.0458279C18.6063 0.0183312 18.7702 0.00229139 18.9545 0V0ZM12.0599 9.62386C11.9029 9.64906 11.623 9.71093 11.4341 9.75905C11.2475 9.80717 10.9335 9.90341 10.7401 9.97215C10.5467 10.0432 10.2691 10.1532 10.1257 10.2173C9.9824 10.2815 9.75713 10.3915 9.62515 10.4625C9.49317 10.5335 9.2679 10.6641 9.12455 10.7535C8.9812 10.8429 8.74 11.0079 8.58982 11.1201C8.43964 11.2324 8.2303 11.3974 8.12335 11.4868C8.01868 11.5761 7.83892 11.7411 7.72743 11.8557C7.61593 11.9702 7.42707 12.1696 7.30874 12.3025C7.18814 12.4354 7.01976 12.6347 6.93329 12.7493C6.84683 12.8639 6.70575 13.0587 6.62156 13.1847C6.53736 13.3107 6.41677 13.5055 6.3485 13.62C6.28251 13.7346 6.15509 13.9752 6.06407 14.1585C5.97305 14.3418 5.85018 14.6145 5.79102 14.7657C5.73186 14.917 5.64766 15.1484 5.60443 15.2813C5.5612 15.4142 5.49748 15.6411 5.46108 15.7854C5.42467 15.9298 5.37461 16.1566 5.34958 16.2895C5.32455 16.4224 5.28814 16.6584 5.26766 16.8165C5.24719 16.9746 5.22443 17.3046 5.2176 17.5498C5.2085 17.8202 5.21533 18.1456 5.23126 18.3747C5.24719 18.5832 5.27904 18.8811 5.3018 19.0392C5.32455 19.1973 5.37006 19.4494 5.40419 19.6006C5.43832 19.7518 5.50204 19.9993 5.54527 20.1505C5.5885 20.3018 5.67497 20.5653 5.73641 20.7348C5.80012 20.9044 5.94802 21.2389 6.06407 21.4795C6.18239 21.7201 6.36671 22.0547 6.47365 22.2242C6.58287 22.3938 6.75808 22.6527 6.8673 22.7971C6.97425 22.9414 7.15629 23.1683 7.27006 23.2989C7.38156 23.4318 7.6182 23.6724 7.79341 23.8374C7.96862 24.0001 8.21892 24.22 8.3509 24.3254C8.48287 24.4308 8.70814 24.5981 8.8515 24.6966C8.99485 24.7952 9.20419 24.9304 9.31796 24.9968C9.43174 25.0656 9.69569 25.2053 9.90958 25.3085C10.1235 25.4116 10.4352 25.5468 10.6036 25.6109C10.772 25.6728 11.0382 25.7621 11.1952 25.808C11.3522 25.8538 11.623 25.9203 11.7982 25.9569C11.9734 25.9936 12.2442 26.0417 12.4012 26.0623C12.5582 26.0829 12.8654 26.1081 13.0838 26.1196C13.3023 26.1311 14.1487 26.1425 14.9611 26.1425C16.2262 26.1425 16.4606 26.1494 16.5766 26.1792C16.6517 26.1998 16.7746 26.2456 16.8497 26.28C16.9248 26.3167 17.0386 26.39 17.1046 26.445C17.1683 26.5 17.2616 26.5939 17.3116 26.6581C17.3617 26.7199 17.4299 26.8299 17.4641 26.8987C17.4982 26.9674 17.546 27.1026 17.5687 27.1966C17.6097 27.357 17.612 27.4738 17.612 28.8876C17.612 29.7217 17.6188 30.4091 17.6302 30.4137C17.6393 30.4183 18.62 29.5109 19.8078 28.395C21.7487 26.5756 21.9854 26.3602 22.1287 26.2892C22.2152 26.2479 22.3495 26.1952 22.4246 26.1769C22.536 26.1494 22.7386 26.1425 23.5168 26.1425C24.0424 26.1425 24.6522 26.1311 24.8707 26.1196C25.0891 26.1081 25.3917 26.0829 25.5419 26.0623C25.6921 26.044 25.9629 25.9959 26.1449 25.9592C26.3269 25.9225 26.6137 25.8515 26.782 25.8011C26.9504 25.7507 27.2166 25.6613 27.3737 25.604C27.5307 25.5468 27.8743 25.3909 28.1359 25.2603C28.3976 25.1297 28.7207 24.9533 28.8527 24.8685C28.9847 24.7837 29.2281 24.6119 29.3943 24.4881C29.5581 24.3644 29.8152 24.1559 29.9608 24.0276C30.1087 23.897 30.3249 23.6861 30.4432 23.5624C30.5616 23.4387 30.7413 23.2324 30.8437 23.1064C30.9484 22.9804 31.1168 22.7581 31.2192 22.6138C31.3216 22.4694 31.4899 22.2105 31.5901 22.0409C31.6902 21.8714 31.8472 21.5781 31.9382 21.3879C32.0269 21.2 32.1521 20.9044 32.2158 20.7348C32.2795 20.5653 32.3728 20.2857 32.4206 20.1162C32.4707 19.9466 32.5366 19.6785 32.5685 19.5204C32.6004 19.3623 32.6436 19.1263 32.6618 18.9934C32.6823 18.8605 32.7096 18.6084 32.7232 18.432C32.7392 18.2372 32.7437 17.9256 32.7369 17.6414C32.7301 17.3825 32.7073 17.0388 32.6868 16.8738C32.6686 16.7088 32.6299 16.4568 32.6049 16.3124C32.5799 16.1681 32.523 15.916 32.482 15.751C32.4388 15.5861 32.3592 15.3157 32.3023 15.1507C32.2431 14.9834 32.1566 14.7497 32.1089 14.6351C32.0611 14.5183 31.9792 14.335 31.9291 14.2273C31.879 14.1196 31.7698 13.9088 31.6856 13.7575C31.6014 13.6063 31.4604 13.3749 31.3739 13.242C31.2852 13.1091 31.1418 12.9051 31.0508 12.786C30.962 12.6668 30.8028 12.4698 30.6981 12.3506C30.5911 12.2292 30.4182 12.0436 30.3113 11.9359C30.2043 11.8282 30.0245 11.6586 29.9108 11.5601C29.797 11.4616 29.574 11.2805 29.4102 11.1568C29.2463 11.0331 28.9915 10.8566 28.8413 10.7627C28.6911 10.6664 28.4499 10.5267 28.3066 10.451C28.1632 10.3754 27.9175 10.2563 27.7605 10.1875C27.6035 10.1188 27.3213 10.0088 27.1347 9.94465C26.9459 9.8782 26.6751 9.79571 26.5317 9.75905C26.3884 9.72239 26.1563 9.67198 26.0198 9.64448C25.8832 9.61927 25.5943 9.57574 25.3826 9.55282C25.0072 9.50929 24.8092 9.507 18.9431 9.50929C13.969 9.51158 12.8426 9.51845 12.6174 9.54366C12.4672 9.56199 12.2169 9.59636 12.0599 9.62386ZM14.5629 13.9156C14.7472 13.9202 14.8678 13.9386 14.9725 13.9706C15.0544 13.9981 15.1977 14.0692 15.291 14.131C15.3843 14.1906 15.5208 14.3075 15.5937 14.39C15.671 14.4747 15.7643 14.6145 15.8166 14.7199C15.8667 14.8207 15.9213 14.9811 15.9418 15.0751C15.9714 15.224 15.9759 15.5632 15.9691 17.6414C15.96 19.981 15.96 20.0382 15.9145 20.1734C15.8895 20.2491 15.8326 20.3774 15.7893 20.4599C15.7416 20.5515 15.646 20.6753 15.5413 20.7807C15.4184 20.9044 15.3183 20.98 15.1886 21.0465C15.0885 21.0992 14.9247 21.1587 14.8246 21.1817C14.6903 21.2114 14.5879 21.2183 14.4377 21.2114C14.3012 21.2023 14.176 21.1771 14.0623 21.1381C13.969 21.106 13.8256 21.035 13.746 20.98C13.6663 20.9273 13.5389 20.8173 13.4616 20.7348C13.3842 20.6523 13.2909 20.524 13.2499 20.4484C13.2113 20.3728 13.1566 20.233 13.1316 20.1391C13.0838 19.9695 13.0838 19.926 13.0838 17.5658C13.0838 15.9321 13.0907 15.1278 13.1089 15.0453C13.1225 14.9811 13.1771 14.8345 13.2317 14.7199C13.3 14.5801 13.3751 14.4679 13.4638 14.3739C13.5366 14.296 13.6481 14.1998 13.7096 14.1562C13.771 14.115 13.8802 14.0554 13.9485 14.0233C14.0168 13.9913 14.126 13.9523 14.1874 13.9363C14.258 13.9179 14.399 13.9111 14.5629 13.9156ZM23.4257 13.9088C23.5395 13.9088 23.6965 13.9225 23.7784 13.9431C23.8604 13.9615 24.0083 14.021 24.1084 14.0737C24.2313 14.1379 24.3428 14.2204 24.452 14.3304C24.5384 14.4175 24.6477 14.5572 24.6932 14.6397C24.7387 14.7222 24.8001 14.862 24.882 15.1095L24.8889 17.4009C24.8934 18.8857 24.8889 19.7656 24.8729 19.8985C24.8593 20.013 24.8274 20.1666 24.8024 20.2422C24.7751 20.3178 24.7159 20.4415 24.6704 20.5171C24.6249 20.5928 24.5248 20.7165 24.4474 20.7921C24.3723 20.8677 24.2426 20.9685 24.163 21.0167C24.0834 21.0648 23.9445 21.1267 23.8581 21.1542C23.7329 21.1931 23.6442 21.2046 23.4371 21.2046C23.2301 21.2046 23.1413 21.1931 23.0162 21.1542C22.9297 21.1267 22.7909 21.0648 22.709 21.0167C22.6293 20.9685 22.4996 20.8677 22.4246 20.7921C22.3495 20.7165 22.2493 20.5928 22.2038 20.5171C22.1583 20.4415 22.0992 20.3132 22.0719 20.2307C22.0445 20.1482 22.0127 19.9993 22.0013 19.8985C21.9877 19.7885 21.9808 18.8009 21.9854 17.4238C21.9922 15.334 21.9968 15.1209 22.0332 14.9949C22.0537 14.9193 22.1105 14.7795 22.1583 14.6855C22.2175 14.5641 22.2926 14.4633 22.4132 14.3418C22.5338 14.2181 22.6362 14.1402 22.7659 14.0737C22.866 14.021 23.0093 13.9615 23.0844 13.9431C23.1595 13.9248 23.312 13.9088 23.4257 13.9088Z" fill="url(#paint0_linear_1_2449)"/>
<path d="M58.336 23H56.512L51.024 14.696V23H49.2V11.864H51.024L56.512 20.152V11.864H58.336V23ZM68.8113 18.376C68.8113 18.7067 68.7899 19.0053 68.7473 19.272H62.0113C62.0646 19.976 62.3259 20.5413 62.7953 20.968C63.2646 21.3947 63.8406 21.608 64.5233 21.608C65.5046 21.608 66.1979 21.1973 66.6033 20.376H68.5712C68.3046 21.1867 67.8193 21.8533 67.1153 22.376C66.4219 22.888 65.5579 23.144 64.5233 23.144C63.6806 23.144 62.9233 22.9573 62.2513 22.584C61.5899 22.2 61.0673 21.6667 60.6833 20.984C60.3099 20.2907 60.1233 19.4907 60.1233 18.584C60.1233 17.6773 60.3046 16.8827 60.6673 16.2C61.0406 15.5067 61.5579 14.9733 62.2193 14.6C62.8913 14.2267 63.6593 14.04 64.5233 14.04C65.3553 14.04 66.0966 14.2213 66.7473 14.584C67.3979 14.9467 67.9046 15.4587 68.2673 16.12C68.6299 16.7707 68.8113 17.5227 68.8113 18.376ZM66.9073 17.8C66.8966 17.128 66.6566 16.5893 66.1873 16.184C65.7179 15.7787 65.1366 15.576 64.4433 15.576C63.8139 15.576 63.2753 15.7787 62.8273 16.184C62.3793 16.5787 62.1126 17.1173 62.0273 17.8H66.9073ZM74.0143 21.368L76.5103 14.184H78.4462L75.0863 23H72.9103L69.5663 14.184H71.5182L74.0143 21.368ZM87.905 18.376C87.905 18.7067 87.8837 19.0053 87.841 19.272H81.105C81.1583 19.976 81.4197 20.5413 81.889 20.968C82.3583 21.3947 82.9343 21.608 83.617 21.608C84.5983 21.608 85.2917 21.1973 85.697 20.376H87.665C87.3983 21.1867 86.913 21.8533 86.209 22.376C85.5157 22.888 84.6517 23.144 83.617 23.144C82.7743 23.144 82.017 22.9573 81.345 22.584C80.6837 22.2 80.161 21.6667 79.777 20.984C79.4037 20.2907 79.217 19.4907 79.217 18.584C79.217 17.6773 79.3983 16.8827 79.761 16.2C80.1343 15.5067 80.6517 14.9733 81.313 14.6C81.985 14.2267 82.753 14.04 83.617 14.04C84.449 14.04 85.1903 14.2213 85.841 14.584C86.4917 14.9467 86.9983 15.4587 87.361 16.12C87.7237 16.7707 87.905 17.5227 87.905 18.376ZM86.001 17.8C85.9903 17.128 85.7503 16.5893 85.281 16.184C84.8117 15.7787 84.2303 15.576 83.537 15.576C82.9077 15.576 82.369 15.7787 81.921 16.184C81.473 16.5787 81.2063 17.1173 81.121 17.8H86.001ZM91.524 15.464C91.7907 15.016 92.1427 14.6693 92.58 14.424C93.028 14.168 93.556 14.04 94.164 14.04V15.928H93.7C92.9853 15.928 92.4413 16.1093 92.068 16.472C91.7053 16.8347 91.524 17.464 91.524 18.36V23H89.7V14.184H91.524V15.464ZM107.553 11.88V23H105.729V15.384L102.337 23H101.073L97.6646 15.384V23H95.8406V11.88H97.8086L101.713 20.6L105.601 11.88H107.553ZM110.878 13.016C110.547 13.016 110.27 12.904 110.046 12.68C109.822 12.456 109.71 12.1787 109.71 11.848C109.71 11.5173 109.822 11.24 110.046 11.016C110.27 10.792 110.547 10.68 110.878 10.68C111.198 10.68 111.47 10.792 111.694 11.016C111.918 11.24 112.03 11.5173 112.03 11.848C112.03 12.1787 111.918 12.456 111.694 12.68C111.47 12.904 111.198 13.016 110.878 13.016ZM111.774 14.184V23H109.95V14.184H111.774ZM117.369 23.144C116.675 23.144 116.051 23.0213 115.497 22.776C114.953 22.52 114.521 22.1787 114.201 21.752C113.881 21.3147 113.71 20.8293 113.689 20.296H115.577C115.609 20.6693 115.785 20.984 116.105 21.24C116.435 21.4853 116.846 21.608 117.337 21.608C117.849 21.608 118.243 21.512 118.521 21.32C118.809 21.1173 118.953 20.8613 118.953 20.552C118.953 20.2213 118.793 19.976 118.473 19.816C118.163 19.656 117.667 19.48 116.985 19.288C116.323 19.1067 115.785 18.9307 115.369 18.76C114.953 18.5893 114.59 18.328 114.281 17.976C113.982 17.624 113.833 17.16 113.833 16.584C113.833 16.1147 113.971 15.688 114.249 15.304C114.526 14.9093 114.921 14.6 115.433 14.376C115.955 14.152 116.553 14.04 117.225 14.04C118.227 14.04 119.033 14.296 119.641 14.808C120.259 15.3093 120.59 15.9973 120.633 16.872H118.809C118.777 16.4773 118.617 16.1627 118.329 15.928C118.041 15.6933 117.651 15.576 117.161 15.576C116.681 15.576 116.313 15.6667 116.057 15.848C115.801 16.0293 115.673 16.2693 115.673 16.568C115.673 16.8027 115.758 17 115.929 17.16C116.099 17.32 116.307 17.448 116.553 17.544C116.798 17.6293 117.161 17.7413 117.641 17.88C118.281 18.0507 118.803 18.2267 119.209 18.408C119.625 18.5787 119.982 18.8347 120.281 19.176C120.579 19.5173 120.734 19.9707 120.745 20.536C120.745 21.0373 120.606 21.4853 120.329 21.88C120.051 22.2747 119.657 22.584 119.145 22.808C118.643 23.032 118.051 23.144 117.369 23.144ZM125.916 23.144C125.222 23.144 124.598 23.0213 124.044 22.776C123.5 22.52 123.068 22.1787 122.748 21.752C122.428 21.3147 122.257 20.8293 122.236 20.296H124.124C124.156 20.6693 124.332 20.984 124.652 21.24C124.982 21.4853 125.393 21.608 125.884 21.608C126.396 21.608 126.79 21.512 127.068 21.32C127.356 21.1173 127.5 20.8613 127.5 20.552C127.5 20.2213 127.34 19.976 127.02 19.816C126.71 19.656 126.214 19.48 125.532 19.288C124.87 19.1067 124.332 18.9307 123.916 18.76C123.5 18.5893 123.137 18.328 122.828 17.976C122.529 17.624 122.38 17.16 122.38 16.584C122.38 16.1147 122.518 15.688 122.796 15.304C123.073 14.9093 123.468 14.6 123.98 14.376C124.502 14.152 125.1 14.04 125.772 14.04C126.774 14.04 127.58 14.296 128.188 14.808C128.806 15.3093 129.137 15.9973 129.18 16.872H127.356C127.324 16.4773 127.164 16.1627 126.876 15.928C126.588 15.6933 126.198 15.576 125.708 15.576C125.228 15.576 124.86 15.6667 124.604 15.848C124.348 16.0293 124.22 16.2693 124.22 16.568C124.22 16.8027 124.305 17 124.476 17.16C124.646 17.32 124.854 17.448 125.1 17.544C125.345 17.6293 125.708 17.7413 126.188 17.88C126.828 18.0507 127.35 18.2267 127.756 18.408C128.172 18.5787 128.529 18.8347 128.828 19.176C129.126 19.5173 129.281 19.9707 129.292 20.536C129.292 21.0373 129.153 21.4853 128.876 21.88C128.598 22.2747 128.204 22.584 127.692 22.808C127.19 23.032 126.598 23.144 125.916 23.144ZM139.343 18.376C139.343 18.7067 139.321 19.0053 139.279 19.272H132.543C132.596 19.976 132.857 20.5413 133.327 20.968C133.796 21.3947 134.372 21.608 135.055 21.608C136.036 21.608 136.729 21.1973 137.135 20.376H139.102C138.836 21.1867 138.351 21.8533 137.647 22.376C136.953 22.888 136.089 23.144 135.055 23.144C134.212 23.144 133.455 22.9573 132.783 22.584C132.121 22.2 131.599 21.6667 131.215 20.984C130.841 20.2907 130.655 19.4907 130.655 18.584C130.655 17.6773 130.836 16.8827 131.199 16.2C131.572 15.5067 132.089 14.9733 132.751 14.6C133.423 14.2267 134.191 14.04 135.055 14.04C135.887 14.04 136.628 14.2213 137.279 14.584C137.929 14.9467 138.436 15.4587 138.799 16.12C139.161 16.7707 139.343 17.5227 139.343 18.376ZM137.439 17.8C137.428 17.128 137.188 16.5893 136.719 16.184C136.249 15.7787 135.668 15.576 134.975 15.576C134.345 15.576 133.807 15.7787 133.359 16.184C132.911 16.5787 132.644 17.1173 132.559 17.8H137.439ZM140.53 18.552C140.53 17.6667 140.711 16.8827 141.074 16.2C141.447 15.5173 141.948 14.9893 142.578 14.616C143.218 14.232 143.927 14.04 144.706 14.04C145.282 14.04 145.847 14.168 146.402 14.424C146.967 14.6693 147.415 15 147.746 15.416V11.16H149.586V23H147.746V21.672C147.447 22.0987 147.031 22.4507 146.498 22.728C145.975 23.0053 145.372 23.144 144.69 23.144C143.922 23.144 143.218 22.952 142.578 22.568C141.948 22.1733 141.447 21.6293 141.074 20.936C140.711 20.232 140.53 19.4373 140.53 18.552ZM147.746 18.584C147.746 17.976 147.618 17.448 147.362 17C147.116 16.552 146.791 16.2107 146.386 15.976C145.98 15.7413 145.543 15.624 145.074 15.624C144.604 15.624 144.167 15.7413 143.762 15.976C143.356 16.2 143.026 16.536 142.77 16.984C142.524 17.4213 142.402 17.944 142.402 18.552C142.402 19.16 142.524 19.6933 142.77 20.152C143.026 20.6107 143.356 20.9627 143.762 21.208C144.178 21.4427 144.615 21.56 145.074 21.56C145.543 21.56 145.98 21.4427 146.386 21.208C146.791 20.9733 147.116 20.632 147.362 20.184C147.618 19.7253 147.746 19.192 147.746 18.584ZM151.373 17.416C151.373 16.328 151.624 15.352 152.125 14.488C152.637 13.624 153.325 12.952 154.189 12.472C155.064 11.9813 156.019 11.736 157.053 11.736C158.237 11.736 159.288 12.0293 160.205 12.616C161.133 13.192 161.805 14.0133 162.221 15.08H160.029C159.741 14.4933 159.341 14.056 158.829 13.768C158.317 13.48 157.725 13.336 157.053 13.336C156.317 13.336 155.661 13.5013 155.085 13.832C154.509 14.1627 154.056 14.6373 153.725 15.256C153.405 15.8747 153.245 16.5947 153.245 17.416C153.245 18.2373 153.405 18.9573 153.725 19.576C154.056 20.1947 154.509 20.6747 155.085 21.016C155.661 21.3467 156.317 21.512 157.053 21.512C157.725 21.512 158.317 21.368 158.829 21.08C159.341 20.792 159.741 20.3547 160.029 19.768H162.221C161.805 20.8347 161.133 21.656 160.205 22.232C159.288 22.808 158.237 23.096 157.053 23.096C156.008 23.096 155.053 22.856 154.189 22.376C153.325 21.8853 152.637 21.208 152.125 20.344C151.624 19.48 151.373 18.504 151.373 17.416ZM163.748 18.552C163.748 17.6667 163.93 16.8827 164.292 16.2C164.666 15.5173 165.167 14.9893 165.796 14.616C166.436 14.232 167.14 14.04 167.908 14.04C168.602 14.04 169.204 14.1787 169.716 14.456C170.239 14.7227 170.655 15.0587 170.964 15.464V14.184H172.804V23H170.964V21.688C170.655 22.104 170.234 22.4507 169.7 22.728C169.167 23.0053 168.559 23.144 167.876 23.144C167.119 23.144 166.426 22.952 165.796 22.568C165.167 22.1733 164.666 21.6293 164.292 20.936C163.93 20.232 163.748 19.4373 163.748 18.552ZM170.964 18.584C170.964 17.976 170.836 17.448 170.58 17C170.335 16.552 170.01 16.2107 169.604 15.976C169.199 15.7413 168.762 15.624 168.292 15.624C167.823 15.624 167.386 15.7413 166.98 15.976C166.575 16.2 166.244 16.536 165.988 16.984C165.743 17.4213 165.62 17.944 165.62 18.552C165.62 19.16 165.743 19.6933 165.988 20.152C166.244 20.6107 166.575 20.9627 166.98 21.208C167.396 21.4427 167.834 21.56 168.292 21.56C168.762 21.56 169.199 21.4427 169.604 21.208C170.01 20.9733 170.335 20.632 170.58 20.184C170.836 19.7253 170.964 19.192 170.964 18.584ZM177.024 11.16V23H175.2V11.16H177.024ZM181.243 11.16V23H179.419V11.16H181.243Z" fill="white"/>
<defs>
<linearGradient id="paint0_linear_1_2449" x1="38" y1="35" x2="3.11802" y2="-2.87186" gradientUnits="userSpaceOnUse">
<stop stop-color="#F83600"/>
<stop offset="1" stop-color="#F9D423"/>
</linearGradient>
</defs>
</svg>
