<svg width="32" height="32" viewBox="0 0 32 32" fill="none" xmlns="http://www.w3.org/2000/svg">
<path d="M0 0H12C12 6.62742 6.62742 12 0 12V0Z" fill="#FF5500"/>
<path d="M0 20C6.62742 20 12 25.3726 12 32H0V20Z" fill="#FF5500"/>
<path d="M20 32C20 25.3726 25.3726 20 32 20V32H20Z" fill="#FF5500"/>
<path d="M20 0H32V12C25.3726 12 20 6.62742 20 0Z" fill="#FF5500"/>
<path d="M23 16C23 19.866 19.866 23 16 23C12.134 23 9 19.866 9 16C9 12.134 12.134 9 16 9C19.866 9 23 12.134 23 16Z" fill="#334EFF"/>
</svg>
