<svg width="32" height="32" viewBox="0 0 32 32" fill="none" xmlns="http://www.w3.org/2000/svg">
<path d="M32 16C32 24.8366 24.8366 32 16 32C7.16344 32 0 24.8366 0 16C0 7.16344 7.16344 0 16 0C24.8366 0 32 7.16344 32 16Z" fill="#2644D9"/>
<path d="M21 26.5C21 27.8807 19.8807 29 18.5 29C17.1193 29 16 27.8807 16 26.5C16 25.1193 17.1193 24 18.5 24C19.8807 24 21 25.1193 21 26.5Z" fill="#66FFE6"/>
<path d="M20 9.5C20 13.0899 17.0899 16 13.5 16C9.91015 16 7 13.0899 7 9.5C7 5.91015 9.91015 3 13.5 3C17.0899 3 20 5.91015 20 9.5Z" fill="#66FFE6"/>
<path d="M28 18.5C28 20.9853 25.9853 23 23.5 23C21.0147 23 19 20.9853 19 18.5C19 16.0147 21.0147 14 23.5 14C25.9853 14 28 16.0147 28 18.5Z" fill="#66FFE6"/>
</svg>
