<svg width="32" height="32" viewBox="0 0 32 32" fill="none" xmlns="http://www.w3.org/2000/svg">
<path d="M3.63679e-07 16C4.41828 16 8 12.4183 8 8C12.4183 8 16 4.41828 16 0L7.68 3.63679e-07C3.43845 5.49083e-07 -1.85403e-07 3.43845 0 7.68L3.63679e-07 16Z" fill="#6666FF"/>
<path d="M16 0C16 4.41828 19.5817 8 24 8C24 12.4183 27.5817 16 32 16V7.68C32 3.43845 28.5615 0 24.32 0H16Z" fill="#6666FF"/>
<path d="M32 16C27.5817 16 24 19.5817 24 24C19.5817 24 16 27.5817 16 32H24.32C28.5615 32 32 28.5615 32 24.32V16Z" fill="#6666FF"/>
<path d="M16 32C16 27.5817 12.4183 24 8 24C8 19.5817 4.41828 16 0 16L7.27357e-07 24.32C1.09817e-06 28.5615 3.43845 32 7.68 32H16Z" fill="#6666FF"/>
<path d="M22.4001 16.0001C22.4001 19.5347 19.5347 22.4001 16.0001 22.4001C12.4655 22.4001 9.6001 19.5347 9.6001 16.0001C9.6001 12.4655 12.4655 9.6001 16.0001 9.6001C19.5347 9.6001 22.4001 12.4655 22.4001 16.0001Z" fill="#FF4775"/>
</svg>
