<svg width="40" height="40" viewBox="0 0 40 40" fill="none" xmlns="http://www.w3.org/2000/svg">
<path d="M36.6663 20.0002H32.533C31.8046 19.9986 31.0958 20.2357 30.5149 20.6751C29.934 21.1145 29.513 21.7322 29.3163 22.4335L25.3997 36.3668C25.3744 36.4534 25.3218 36.5294 25.2497 36.5835C25.1775 36.6376 25.0898 36.6668 24.9997 36.6668C24.9095 36.6668 24.8218 36.6376 24.7497 36.5835C24.6776 36.5294 24.6249 36.4534 24.5997 36.3668L15.3997 3.6335C15.3744 3.54695 15.3218 3.47092 15.2497 3.41683C15.1776 3.36274 15.0898 3.3335 14.9997 3.3335C14.9095 3.3335 14.8218 3.36274 14.7497 3.41683C14.6776 3.47092 14.6249 3.54695 14.5997 3.6335L10.683 17.5668C10.4871 18.2654 10.0686 18.881 9.49111 19.3202C8.91359 19.7593 8.20854 19.9981 7.48301 20.0002H3.33301" stroke="#003B54" stroke-width="2" stroke-linecap="round" stroke-linejoin="round"/>
</svg>
